<svg width="144" height="45" viewBox="0 0 144 45" fill="none" xmlns="http://www.w3.org/2000/svg">
<path fill-rule="evenodd" clip-rule="evenodd" d="M7.40639 0.155079C4.46365 1.5163 1.22034 5.35246 0.199818 10.1709C-1.09331 16.2731 4.29589 18.8564 4.74324 18.0133C5.25351 17.0156 3.77165 16.6753 3.4641 13.512C3.06567 9.42064 4.79916 4.84973 6.97302 2.84658C7.37843 2.47534 7.35746 2.99353 7.35746 3.95257C7.35746 5.66956 7.27358 21.0683 7.27358 24.278C7.27358 28.6246 7.11282 30.0013 6.81924 31.3548C6.51867 32.7315 6.04336 33.6596 6.40684 34.0154C6.81225 34.4175 8.53875 33.4662 9.53132 31.9271C10.7266 30.0864 11.146 27.8744 11.2229 25.4768C11.3137 22.5765 11.3067 17.9901 11.3137 15.3682C11.3137 12.9629 11.3487 5.93252 11.2788 1.70192C11.2508 0.67327 8.6436 -0.409517 7.40639 0.155079ZM143.339 22.9941C142.912 22.9941 142.717 23.4814 142.556 24.2935C141.997 27.1319 141.409 27.7739 140.648 27.7739C139.802 27.7739 139.04 26.3663 138.844 23.551C138.69 21.339 138.711 17.2631 138.907 13.2104C138.949 12.3751 138.739 11.5553 136.712 10.7432C135.839 10.3951 134.566 9.87696 133.937 11.563C132.155 16.3041 131.456 20.0706 131.288 21.602C131.281 21.6793 131.19 21.6948 131.176 21.5169C131.071 20.2872 130.841 18.0597 130.806 13.3805C130.799 12.4679 130.624 11.6868 129.708 11.0526C129.114 10.6426 127.311 9.90789 126.661 10.7819C126.102 11.4934 125.445 13.4037 124.767 15.6699C124.214 17.5106 123.837 18.7558 123.837 18.7558C123.837 18.7558 123.844 13.7827 123.851 11.9033C123.851 11.1918 123.411 10.9597 123.278 10.9133C122.677 10.72 121.488 10.4029 120.985 10.4029C120.363 10.4029 120.216 10.7819 120.216 11.3387C120.216 11.4083 120.118 17.8818 120.118 22.4063V23.0483C119.776 25.1288 118.664 27.9518 117.455 27.9518C116.239 27.9518 115.673 26.7762 115.673 21.3777C115.673 18.2299 115.757 16.8609 115.799 14.5871C115.82 13.28 115.868 12.2668 115.868 12.0425C115.861 11.3387 114.757 10.9907 114.247 10.8592C113.73 10.7277 113.282 10.6736 112.933 10.6968C112.436 10.7277 112.087 11.0835 112.087 11.5785C112.087 11.8414 112.087 12.3442 112.087 12.3442C111.451 11.2459 110.43 10.4802 109.745 10.2559C107.914 9.6604 105.999 10.1863 104.552 12.4138C103.405 14.1772 102.713 16.1803 102.441 19.0574C102.238 21.1611 102.308 23.2958 102.658 25.0978C102.231 27.1319 101.434 27.9672 100.568 27.9672C99.3094 27.9672 98.3937 25.7011 98.4986 21.7799C98.5685 19.2044 99.0368 17.3946 99.5471 14.7727C99.7637 13.659 99.589 13.0712 99.1416 12.5143C98.7362 12.0039 97.8625 11.7409 96.6113 12.058C95.7236 12.29 94.4445 12.5375 93.2841 12.7231C93.2841 12.7231 93.354 12.4138 93.4099 11.8724C93.7105 9.01846 90.8936 9.25049 89.9919 10.1631C89.4537 10.7123 89.0902 11.3542 88.9504 12.5066C88.7337 14.3396 90.0897 15.2058 90.0897 15.2058C89.6424 17.4487 88.552 20.38 87.4266 22.4992C86.8255 23.6361 86.3571 24.4791 85.763 25.3685C85.763 25.036 85.763 24.7034 85.756 24.3708C85.742 19.653 85.798 15.9406 85.8259 14.6025C85.8469 13.2955 85.8958 12.3132 85.8958 12.0812C85.8888 11.5707 85.6162 11.3774 85.05 11.1299C84.5468 10.9133 83.9596 10.7664 83.3445 10.7123C82.5756 10.6426 82.1073 11.099 82.1213 11.6326C82.1213 11.7332 82.1213 12.3519 82.1213 12.3519C81.4852 11.2536 80.4647 10.488 79.7797 10.2637C77.9483 9.66813 76.0331 10.1941 74.5862 12.4215C73.4398 14.1849 72.6919 16.6676 72.4752 19.042C72.2795 21.254 72.3145 23.1334 72.5871 24.7189C72.2935 26.3044 71.4547 27.9672 70.5111 27.9672C69.3018 27.9672 68.6098 26.7916 68.6098 21.3932C68.6098 18.2454 68.6937 16.8764 68.7356 14.6025C68.7636 13.2955 68.8055 12.2823 68.8055 12.058C68.7986 11.3542 67.6942 11.0062 67.1839 10.8747C66.6457 10.7355 66.1843 10.689 65.8279 10.72C65.3595 10.7587 65.031 11.2227 65.031 11.563V12.3596C64.3949 11.2614 63.3674 10.4957 62.6894 10.2714C60.858 9.67587 58.9568 10.2173 57.5029 12.4292C56.5523 13.8755 55.7834 15.4765 55.392 19.0188C55.2731 20.0397 55.2242 20.9987 55.2312 21.8959C54.8537 24.4482 53.1831 27.3794 51.8201 27.3794C51.0233 27.3794 50.2614 25.6702 50.2614 22.0351C50.2614 17.1858 50.534 10.2869 50.5829 9.62173C50.5829 9.62173 52.3094 9.59079 52.6449 9.58306C53.5047 9.57533 54.2875 9.59853 55.4339 9.52892C56.0071 9.49798 56.5593 7.22413 55.9721 6.9457C55.6995 6.81422 53.7983 6.70594 53.0434 6.69047C52.4422 6.6518 50.6738 6.50485 50.6738 6.50485C50.6738 6.50485 50.8345 1.92621 50.8695 1.43895C50.8975 1.03678 50.4221 0.827954 50.1565 0.704207C49.4925 0.394839 48.9053 0.247889 48.2064 0.0932054C47.2348 -0.131086 46.8014 0.0854712 46.7105 0.990372C46.5777 2.35159 46.5148 6.3579 46.5148 6.3579C45.8018 6.3579 43.3763 6.20322 42.6704 6.20322C42.0063 6.20322 41.3003 9.32783 42.209 9.3665C43.2575 9.41291 45.0889 9.45158 46.3051 9.49025C46.3051 9.49025 46.2492 16.5052 46.2492 18.6707C46.2492 18.895 46.2492 19.1193 46.2492 19.3359C45.5851 23.172 43.2296 25.2371 43.2296 25.2371C43.7328 22.7002 42.7053 20.7976 40.846 19.1889C40.161 18.5934 38.8119 17.4719 37.2951 16.2345C37.2951 16.2345 38.1689 15.2832 38.9517 13.3728C39.5039 12.0193 39.5249 10.4648 38.1759 10.1245C35.9461 9.55986 34.1008 11.3619 33.5556 13.2955C33.1292 14.7882 33.3598 15.8942 34.1916 17.0466C34.2476 17.1316 34.3175 17.2167 34.3873 17.3018C33.8841 18.3768 33.1921 19.8154 32.6049 20.9291C30.9763 24.0305 29.7461 26.4823 28.8164 26.4823C28.0755 26.4823 28.0825 23.9919 28.0825 21.6639C28.0825 19.653 28.2153 16.6366 28.3271 13.5043C28.3621 12.4679 27.8937 11.8801 27.1039 11.3465C26.6286 11.0216 25.6081 10.3797 25.0139 10.3797C24.1262 10.3797 21.5749 10.5112 19.1634 18.1989C18.8628 19.1657 18.2617 20.9369 18.2617 20.9369L18.3106 11.6945C18.3106 11.4779 18.2058 11.2691 17.9681 11.1222C17.5627 10.8747 16.4723 10.3797 15.5077 10.3797C15.0463 10.3797 14.8157 10.6194 14.8157 11.0912L14.7318 25.5542C14.7318 26.6524 14.7598 27.9363 14.8576 28.4932C14.9555 29.05 15.1162 29.5141 15.312 29.7848C15.5077 30.0555 15.7383 30.2643 16.1088 30.3494C16.4583 30.4267 18.3735 30.6974 18.4714 29.893C18.5902 28.9263 18.5972 27.8822 19.6037 23.9919C21.1695 17.9283 23.2105 14.9738 24.1681 13.9219C24.3359 13.7363 24.5316 13.7286 24.5176 14.0302C24.4757 15.3605 24.3359 18.6862 24.238 21.5014C23.9794 29.05 25.2236 30.4499 27.006 30.4499C28.3691 30.4499 30.2913 28.9572 32.3533 25.1829C33.6394 22.8317 34.8836 20.5192 35.7853 18.8564C36.4074 19.4906 37.1134 20.1789 37.8124 20.9059C39.441 22.6074 39.9723 24.2239 39.6228 25.7553C39.3502 26.9308 38.3296 28.1374 36.5123 26.9618C35.981 26.6215 35.7574 26.3585 35.2261 25.9641C34.9396 25.7553 34.4992 25.6934 34.2406 25.9177C33.5625 26.4823 33.1711 27.2015 32.9474 28.091C32.7307 28.9572 33.5206 29.4135 34.3314 29.8157C35.0374 30.1637 36.5472 30.4731 37.5118 30.5118C41.2654 30.651 44.271 28.5164 46.368 23.0096C46.7455 27.7661 48.3392 30.4576 51.1072 30.4576C52.9595 30.4576 54.8188 27.8203 55.6296 25.2293C55.8603 26.2889 56.2098 27.2093 56.6501 27.9827C58.789 31.7106 62.9271 30.9062 65.01 27.7429C65.6531 26.7684 65.751 26.4127 65.751 26.4127C66.0515 29.3981 68.2394 30.4422 69.4905 30.4422C70.8885 30.4422 72.3354 29.7152 73.349 27.2015C73.4678 27.4722 73.6006 27.7352 73.7404 27.9827C75.8723 31.7106 80.0173 30.9062 82.0933 27.7429C82.1912 27.596 82.2751 27.4645 82.3519 27.3408L82.4149 29.3052C82.4149 29.3052 81.2266 30.504 80.4996 31.2388C77.2913 34.4794 74.8518 36.9389 74.6701 39.8005C74.4394 43.4511 77.1305 44.8046 79.1646 44.9825C81.3244 45.1681 83.1768 43.861 84.3091 42.0203C85.3087 40.4038 85.9657 36.9157 85.9168 33.4817C85.8958 32.105 85.8679 30.3571 85.8399 28.4777C86.9653 27.0391 88.2374 25.2139 89.4047 23.087C90.6769 20.759 92.0469 17.6421 92.7459 15.2135C92.7459 15.2135 93.9342 15.2213 95.1993 15.1362C95.6048 15.113 95.7166 15.1981 95.6467 15.5229C95.5558 15.9174 94.046 22.329 95.423 26.5983C96.3667 29.5218 98.4916 30.4654 99.7498 30.4654C101.225 30.4654 102.637 29.2434 103.391 27.4181C103.482 27.6192 103.58 27.8125 103.685 27.9982C105.817 31.726 109.948 30.914 112.045 27.7584C112.52 27.0469 112.786 26.4281 112.786 26.4281C113.233 29.5218 115.421 30.4731 116.672 30.4731C117.972 30.4731 119.21 29.8853 120.216 27.2712C120.258 28.4235 120.328 29.3671 120.426 29.661C120.489 29.8389 120.859 30.0709 121.132 30.1792C122.327 30.6665 123.536 30.4344 123.991 30.3339C124.305 30.2643 124.543 29.9859 124.578 29.282C124.662 27.4181 124.613 24.278 125.123 21.95C125.983 18.0365 126.787 16.5206 127.171 15.7704C127.381 15.3528 127.625 15.2832 127.632 15.724C127.653 16.6289 127.695 19.2663 128.024 22.824C128.269 25.4382 128.597 26.985 128.849 27.4722C129.569 28.8721 130.456 28.934 131.176 28.934C131.638 28.934 132.595 28.7948 132.511 27.9054C132.469 27.4722 132.546 24.7962 133.392 20.9369C133.951 18.4232 134.874 16.1494 135.209 15.3218C135.335 15.0125 135.391 15.26 135.391 15.3064C135.321 17.0388 135.161 22.7002 135.804 25.8017C136.67 30.0013 139.187 30.4654 140.06 30.4654C141.927 30.4654 143.458 28.9031 143.975 24.7807C144.073 23.7676 143.891 22.9941 143.339 22.9941ZM65.031 20.4496C64.9262 22.6306 64.5347 24.4559 63.9196 25.7785C62.7942 28.1761 60.5784 28.934 59.5999 25.4691C58.8939 22.9709 59.1315 19.5679 59.4251 17.7272C59.8585 14.997 60.9489 13.0634 62.6544 13.2491C64.4089 13.4424 65.2547 15.9174 65.031 20.4496ZM82.1213 20.4805C82.0234 22.5378 81.5341 24.6106 81.0099 25.7785C79.9195 28.1915 77.6338 28.9495 76.6901 25.4691C76.0471 23.0947 76.2008 20.0242 76.5154 18.0907C76.9278 15.5771 77.9343 13.2491 79.7447 13.2491C81.5062 13.2491 82.3729 15.376 82.1213 20.4805ZM82.5686 34.5336C82.5477 38.2924 82.0094 41.5794 80.8561 42.5384C79.2205 43.8919 77.0257 42.8788 77.48 40.1409C77.8854 37.7123 79.7797 35.2374 82.5686 32.2133C82.5756 32.2056 82.5756 32.8939 82.5686 34.5336ZM112.066 20.5037C111.968 22.7621 111.514 24.5333 110.955 25.7785C109.864 28.1915 107.592 28.9417 106.635 25.4691C106.111 23.5819 106.09 20.4187 106.467 17.7813C106.851 15.0975 107.921 13.0634 109.696 13.2491C111.437 13.4347 112.255 15.9174 112.066 20.5037Z" fill="black"/>
</svg>
