<svg width="46" height="46" viewBox="0 0 46 46" fill="none" xmlns="http://www.w3.org/2000/svg">
<path d="M37.5667 40.25L25.4917 28.175C24.5333 28.9417 23.4313 29.5486 22.1854 29.9958C20.9396 30.4431 19.6139 30.6667 18.2083 30.6667C14.7264 30.6667 11.7798 29.4604 9.36867 27.048C6.9575 24.6356 5.75128 21.689 5.75 18.2083C5.74872 14.7277 6.95495 11.7811 9.36867 9.36867C11.7824 6.95622 14.7289 5.75 18.2083 5.75C21.6877 5.75 24.6349 6.95622 27.0499 9.36867C29.4649 11.7811 30.6705 14.7277 30.6667 18.2083C30.6667 19.6139 30.4431 20.9396 29.9958 22.1854C29.5486 23.4312 28.9417 24.5333 28.175 25.4917L40.25 37.5667L37.5667 40.25ZM18.2083 26.8333C20.6042 26.8333 22.6409 25.9951 24.3187 24.3187C25.9964 22.6422 26.8346 20.6054 26.8333 18.2083C26.8321 15.8112 25.9938 13.7751 24.3187 12.0999C22.6435 10.4248 20.6067 9.58589 18.2083 9.58333C15.8099 9.58078 13.7738 10.4196 12.0999 12.0999C10.426 13.7802 9.58717 15.8163 9.58333 18.2083C9.5795 20.6003 10.4184 22.6371 12.0999 24.3187C13.7815 26.0002 15.8176 26.8384 18.2083 26.8333Z" fill="black"/>
</svg>
