<svg width="230" height="221" viewBox="0 0 230 221" fill="none" xmlns="http://www.w3.org/2000/svg">
<path d="M30.0667 30.2148C27.7327 30.2148 25.6612 31.2759 24.2578 33.0997C22.8544 31.2759 20.783 30.2148 18.4489 30.2148C16.4161 30.2177 14.4672 31.149 13.0298 32.8046C11.5923 34.4601 10.7837 36.7047 10.7812 39.046C10.7812 48.7255 23.074 56.4594 23.5968 56.7846C23.7999 56.9106 24.0271 56.9766 24.2578 56.9766C24.4886 56.9766 24.7157 56.9106 24.9189 56.7846C25.4417 56.4594 37.7344 48.7255 37.7344 39.046C37.7319 36.7047 36.9233 34.4601 35.4858 32.8046C34.0484 31.149 32.0995 30.2177 30.0667 30.2148ZM29.4289 49.2634C27.8108 50.8447 26.0812 52.268 24.2578 53.5184C22.4345 52.268 20.7048 50.8447 19.0868 49.2634C16.5692 46.7759 13.5695 42.9826 13.5695 39.046C13.5695 37.5555 14.0836 36.1261 14.9987 35.0722C15.9137 34.0183 17.1548 33.4262 18.4489 33.4262C20.5169 33.4262 22.2479 34.6839 22.9671 36.7098C23.0718 37.0051 23.2504 37.2578 23.4803 37.4357C23.7102 37.6136 23.9809 37.7086 24.2578 37.7086C24.5348 37.7086 24.8054 37.6136 25.0353 37.4357C25.2652 37.2578 25.4439 37.0051 25.5485 36.7098C26.2677 34.6839 27.9987 33.4262 30.0667 33.4262C31.3608 33.4262 32.6019 34.0183 33.517 35.0722C34.432 36.1261 34.9461 37.5555 34.9461 39.046C34.9461 42.9826 31.9464 46.7759 29.4289 49.2634Z" fill="black"/>
</svg>
