<svg width="37" height="35" viewBox="0 0 37 35" fill="none" xmlns="http://www.w3.org/2000/svg">
<path d="M3.7 35C2.6825 35 1.81177 34.6576 1.0878 33.9727C0.363833 33.2879 0.00123333 32.4637 0 31.5V14C0 13.0375 0.3626 12.2138 1.0878 11.529C1.813 10.8442 2.68373 10.5012 3.7 10.5H33.3C34.3175 10.5 35.1888 10.843 35.914 11.529C36.6392 12.215 37.0012 13.0387 37 14V31.5C37 32.4625 36.638 33.2867 35.914 33.9727C35.1901 34.6587 34.3187 35.0012 33.3 35H3.7ZM3.7 31.5H33.3V14H3.7V31.5ZM14.8 29.75L25.9 22.75L14.8 15.75V29.75ZM3.7 8.75V5.25H33.3V8.75H3.7ZM9.25 3.5V0H27.75V3.5H9.25Z" fill="black"/>
</svg>
